<svg xmlns="http://www.w3.org/2000/svg" width="35.128" height="35.128" viewBox="0 0 35.128 35.128">
  <g id="Instagram" transform="translate(16 -144)">
    <g id="Black" transform="translate(-500 -160)">
      <path id="Instagram-2" data-name="Instagram" d="M517.564,160c-4.77,0-5.368.02-7.242.106a12.89,12.89,0,0,0-4.263.816,8.981,8.981,0,0,0-5.137,5.137,12.891,12.891,0,0,0-.816,4.263c-.086,1.873-.106,2.472-.106,7.242s.02,5.368.106,7.242a12.891,12.891,0,0,0,.816,4.263,8.981,8.981,0,0,0,5.137,5.137,12.892,12.892,0,0,0,4.263.816c1.873.085,2.472.106,7.242.106s5.368-.02,7.242-.106a12.891,12.891,0,0,0,4.264-.816,8.981,8.981,0,0,0,5.137-5.137,12.894,12.894,0,0,0,.816-4.263c.085-1.873.106-2.472.106-7.242s-.02-5.368-.106-7.242a12.894,12.894,0,0,0-.816-4.263,8.981,8.981,0,0,0-5.137-5.137,12.889,12.889,0,0,0-4.264-.816C522.932,160.02,522.334,160,517.564,160Zm0,3.165c4.69,0,5.245.018,7.1.1a9.717,9.717,0,0,1,3.261.6,5.817,5.817,0,0,1,3.333,3.333,9.718,9.718,0,0,1,.6,3.261c.084,1.852.1,2.408.1,7.1s-.018,5.245-.1,7.1a9.718,9.718,0,0,1-.6,3.261,5.817,5.817,0,0,1-3.333,3.333,9.717,9.717,0,0,1-3.261.6c-1.852.085-2.407.1-7.1.1s-5.246-.018-7.1-.1a9.717,9.717,0,0,1-3.261-.6,5.817,5.817,0,0,1-3.333-3.333,9.719,9.719,0,0,1-.6-3.261c-.084-1.852-.1-2.408-.1-7.1s.018-5.245.1-7.1a9.719,9.719,0,0,1,.6-3.261,5.817,5.817,0,0,1,3.333-3.333,9.717,9.717,0,0,1,3.261-.6C512.319,163.183,512.874,163.165,517.564,163.165Zm0,5.38a9.019,9.019,0,1,0,9.019,9.019A9.019,9.019,0,0,0,517.564,168.545Zm0,14.874a5.855,5.855,0,1,1,5.855-5.855A5.855,5.855,0,0,1,517.564,183.419Zm11.483-15.23a2.108,2.108,0,1,1-2.108-2.108A2.108,2.108,0,0,1,529.048,168.188Z" transform="translate(-16 144)" fill="#fff" fill-rule="evenodd"/>
    </g>
  </g>
</svg>
