<svg id="Twitter" xmlns="http://www.w3.org/2000/svg" width="40.8" height="34" viewBox="0 0 40.8 34">
  <g id="Black">
    <path id="Twitter-2" data-name="Twitter" d="M340.8,168.025a16.35,16.35,0,0,1-4.806,1.351,8.564,8.564,0,0,0,3.681-4.747,16.485,16.485,0,0,1-5.319,2.08A8.255,8.255,0,0,0,328.247,164a8.479,8.479,0,0,0-8.367,8.583,8.758,8.758,0,0,0,.216,1.955,23.566,23.566,0,0,1-17.254-8.971,8.739,8.739,0,0,0-1.133,4.32,8.64,8.64,0,0,0,3.724,7.144,8.218,8.218,0,0,1-3.793-1.071v.106a8.533,8.533,0,0,0,6.717,8.416,7.983,7.983,0,0,1-2.206.3,8.132,8.132,0,0,1-1.576-.152,8.4,8.4,0,0,0,7.819,5.958,16.528,16.528,0,0,1-10.4,3.676,16.753,16.753,0,0,1-2-.118A23.306,23.306,0,0,0,312.831,198c15.4,0,23.816-13.077,23.816-24.42,0-.373-.007-.747-.022-1.112a17.179,17.179,0,0,0,4.174-4.442" transform="translate(-300 -164)" fill="#fff" fill-rule="evenodd"/>
  </g>
</svg>
